<svg width="171" height="30" viewBox="0 0 171 30" fill="none" xmlns="http://www.w3.org/2000/svg">
<path d="M45.4875 24.0778C43.8945 24.0778 42.4807 23.799 41.2462 23.2415C40.0315 22.664 39.0757 21.8376 38.3788 20.7624C37.6818 19.6871 37.3334 18.3729 37.3334 16.8197V16.0431H40.8878V16.8197C40.8878 18.1937 41.3059 19.2192 42.1422 19.8962C42.9786 20.5732 44.0937 20.9117 45.4875 20.9117C46.9013 20.9117 47.9666 20.623 48.6835 20.0455C49.4003 19.4681 49.7588 18.7213 49.7588 17.8054C49.7588 17.1881 49.5895 16.6903 49.251 16.3119C48.9125 15.9137 48.4147 15.5951 47.7576 15.3561C47.1204 15.1172 46.3438 14.8882 45.4278 14.6692L44.5317 14.4899C43.1578 14.1713 41.963 13.7731 40.9475 13.2952C39.9519 12.7974 39.1852 12.1602 38.6476 11.3836C38.11 10.607 37.8411 9.59147 37.8411 8.33699C37.8411 7.0825 38.1398 6.00723 38.7372 5.11116C39.3346 4.2151 40.1809 3.52812 41.276 3.05022C42.3712 2.57232 43.6556 2.33337 45.1291 2.33337C46.6026 2.33337 47.9169 2.58228 49.0718 3.08009C50.2267 3.5779 51.1327 4.32462 51.7898 5.32025C52.4669 6.31587 52.8054 7.5604 52.8054 9.05383V10.0395H49.251V9.05383C49.251 8.1976 49.0817 7.51062 48.7432 6.99289C48.4047 6.47517 47.9268 6.09683 47.3095 5.85788C46.6922 5.61893 45.9654 5.49946 45.1291 5.49946C43.8945 5.49946 42.9586 5.73841 42.3214 6.21631C41.6842 6.69421 41.3657 7.37123 41.3657 8.24738C41.3657 8.80493 41.505 9.28283 41.7838 9.68108C42.0825 10.0594 42.5106 10.378 43.0682 10.6369C43.6456 10.8758 44.3625 11.0849 45.2187 11.2641L46.1148 11.4732C47.5485 11.7918 48.803 12.2 49.8782 12.6978C50.9535 13.1757 51.7898 13.8129 52.3872 14.6094C53.0045 15.4059 53.3131 16.4414 53.3131 17.7158C53.3131 18.9702 52.9846 20.0754 52.3275 21.0312C51.6903 21.987 50.7843 22.7337 49.6094 23.2713C48.4545 23.809 47.0805 24.0778 45.4875 24.0778Z" fill="white"/>
<path d="M59.9559 24.0778C58.9204 24.0778 57.9846 23.8986 57.1482 23.5402C56.3119 23.1618 55.6448 22.6242 55.147 21.9272C54.6691 21.2303 54.4302 20.3741 54.4302 19.3585C54.4302 18.3629 54.6691 17.5266 55.147 16.8496C55.6448 16.1725 56.3219 15.6648 57.1781 15.3263C58.0343 14.9678 59.01 14.7886 60.1052 14.7886H64.3765V13.8926C64.3765 13.116 64.1375 12.4887 63.6596 12.0108C63.1817 11.513 62.435 11.2641 61.4195 11.2641C60.4238 11.2641 59.6672 11.5031 59.1494 11.981C58.6516 12.439 58.3231 13.0363 58.1638 13.7731L54.9977 12.7277C55.2366 11.9511 55.615 11.2442 56.1327 10.607C56.6703 9.96981 57.3772 9.46204 58.2534 9.0837C59.1295 8.68545 60.2048 8.48633 61.4792 8.48633C63.4107 8.48633 64.9241 8.97418 66.0192 9.9499C67.1343 10.9057 67.6919 12.2996 67.6919 14.1315V19.926C67.6919 20.5234 67.9707 20.8221 68.5282 20.8221H69.7827V23.6596H67.3633C66.6465 23.6596 66.0591 23.4804 65.6011 23.122C65.1431 22.7636 64.9141 22.2757 64.9141 21.6584V21.5987H64.4063C64.2869 21.8775 64.0778 22.216 63.7791 22.6142C63.4804 23.0125 63.0224 23.3609 62.4051 23.6596C61.8077 23.9384 60.9913 24.0778 59.9559 24.0778ZM60.5234 21.2701C61.6584 21.2701 62.5843 20.9515 63.3012 20.3143C64.018 19.6572 64.3765 18.7811 64.3765 17.6859V17.3872H60.3143C59.5776 17.3872 58.9802 17.5465 58.5222 17.8651C58.0642 18.1837 57.8352 18.6516 57.8352 19.2689C57.8352 19.8663 58.0742 20.3542 58.5521 20.7325C59.03 21.0909 59.6871 21.2701 60.5234 21.2701Z" fill="white"/>
<path d="M73.8397 23.6596L69.001 8.90449H72.645L76.2889 21.1507H76.7967L80.4706 8.90449H84.1145L79.2758 23.6596H73.8397Z" fill="white"/>
<path d="M88.9502 23.6596L84.1115 8.90449H87.7555L91.3995 21.1507H91.9072L95.5811 8.90449H99.2251L94.3863 23.6596H88.9502Z" fill="white"/>
<path d="M102.448 29.6334V26.6465H110.602C111.16 26.6465 111.438 26.3478 111.438 25.7504V21.6286H110.931C110.771 21.987 110.512 22.3454 110.154 22.7038C109.796 23.0423 109.318 23.3311 108.72 23.57C108.123 23.7891 107.366 23.8986 106.45 23.8986C105.315 23.8986 104.31 23.6497 103.434 23.1519C102.557 22.6341 101.88 21.9173 101.402 21.0013C100.925 20.0654 100.686 18.9802 100.686 17.7456V8.90449H104.091V17.4768C104.091 18.6716 104.379 19.5577 104.957 20.1351C105.554 20.7126 106.391 21.0013 107.466 21.0013C108.68 21.0013 109.636 20.6031 110.333 19.8066C111.05 19.0101 111.408 17.8651 111.408 16.3717V8.90449H114.814V26.4673C114.814 27.443 114.535 28.2096 113.977 28.7672C113.42 29.3446 112.663 29.6334 111.707 29.6334H102.448Z" fill="white"/>
<path d="M124.192 24.0778C122.758 24.0778 121.464 23.7791 120.309 23.1817C119.154 22.5844 118.238 21.7182 117.561 20.5832C116.904 19.4481 116.575 18.0841 116.575 16.4911V16.073C116.575 14.48 116.904 13.116 117.561 11.981C118.238 10.846 119.154 9.97976 120.309 9.38239C121.464 8.78502 122.758 8.48633 124.192 8.48633C125.605 8.48633 126.81 8.73523 127.806 9.23305C128.821 9.73086 129.638 10.4178 130.255 11.294C130.872 12.1502 131.271 13.116 131.45 14.1913L128.134 14.8782C128.055 14.2609 127.865 13.7034 127.567 13.2056C127.268 12.6879 126.84 12.2797 126.282 11.981C125.745 11.6823 125.078 11.5329 124.281 11.5329C123.465 11.5329 122.728 11.7122 122.071 12.0706C121.434 12.4091 120.926 12.9268 120.548 13.6237C120.189 14.3207 120.01 15.157 120.01 16.1327V16.4314C120.01 17.4071 120.189 18.2434 120.548 18.9404C120.926 19.6174 121.434 20.1351 122.071 20.4936C122.728 20.852 123.465 21.0312 124.281 21.0312C125.496 21.0312 126.412 20.7225 127.029 20.1053C127.666 19.4681 128.065 18.6516 128.224 17.656L131.539 18.4326C131.3 19.4681 130.872 20.4139 130.255 21.2701C129.638 22.1264 128.821 22.8134 127.806 23.3311C126.81 23.8289 125.605 24.0778 124.192 24.0778Z" fill="white"/>
<path d="M140.675 24.0778C139.202 24.0778 137.877 23.7791 136.703 23.1817C135.548 22.5644 134.632 21.6983 133.955 20.5832C133.298 19.4481 132.969 18.0941 132.969 16.521V16.0431C132.969 14.47 133.298 13.116 133.955 11.981C134.632 10.846 135.548 9.97976 136.703 9.38239C137.877 8.78502 139.202 8.48633 140.675 8.48633C142.149 8.48633 143.463 8.78502 144.618 9.38239C145.773 9.97976 146.679 10.846 147.336 11.981C148.013 13.116 148.351 14.47 148.351 16.0431V16.521C148.351 18.0941 148.013 19.4481 147.336 20.5832C146.679 21.6983 145.773 22.5644 144.618 23.1817C143.463 23.7791 142.149 24.0778 140.675 24.0778ZM140.675 21.0312C141.93 21.0312 142.955 20.6329 143.752 19.8364C144.548 19.02 144.946 17.885 144.946 16.4314V16.1327C144.946 14.6791 144.548 13.5541 143.752 12.7576C142.955 11.9411 141.93 11.5329 140.675 11.5329C139.421 11.5329 138.395 11.9411 137.599 12.7576C136.802 13.5541 136.404 14.6791 136.404 16.1327V16.4314C136.404 17.885 136.802 19.02 137.599 19.8364C138.395 20.6329 139.421 21.0312 140.675 21.0312Z" fill="white"/>
<path d="M150.114 23.6596V8.90449H153.549V23.6596H150.114ZM151.817 7.02276C151.2 7.02276 150.662 6.82364 150.204 6.42539C149.766 6.00723 149.547 5.45963 149.547 4.78261C149.547 4.10558 149.766 3.56795 150.204 3.1697C150.662 2.75154 151.2 2.54246 151.817 2.54246C152.474 2.54246 153.012 2.75154 153.43 3.1697C153.868 3.56795 154.087 4.10558 154.087 4.78261C154.087 5.45963 153.868 6.00723 153.43 6.42539C153.012 6.82364 152.474 7.02276 151.817 7.02276Z" fill="white"/>
<path d="M156.708 23.6596V8.90449H160.083V10.9654H160.591C160.85 10.4079 161.317 9.8802 161.995 9.38239C162.672 8.88458 163.697 8.63567 165.071 8.63567C166.206 8.63567 167.212 8.89453 168.088 9.41226C168.964 9.92998 169.641 10.6468 170.119 11.5628C170.617 12.4788 170.866 13.564 170.866 14.8185V23.6596H167.431V15.0873C167.431 13.8926 167.132 13.0065 166.535 12.429C165.957 11.8316 165.131 11.5329 164.055 11.5329C162.841 11.5329 161.885 11.9411 161.188 12.7576C160.491 13.5541 160.143 14.699 160.143 16.1925V23.6596H156.708Z" fill="white"/>
<path d="M8.13933 16.085H3.04383C2.18584 16.085 1.47407 15.4311 1.39407 14.5786C1.35269 14.1675 1.33337 13.7536 1.33337 13.3315C1.33337 6.1661 7.16548 0.333374 14.3356 0.333374C18.8324 0.333374 22.8024 2.62894 25.1363 6.10816C25.8674 7.198 25.0591 8.66308 23.7459 8.66308H20.5595C20.1539 8.66308 19.7925 8.40096 19.6849 8.02848C18.998 5.67774 16.802 4.03332 14.3494 4.03332C11.2844 4.03332 8.79593 6.52478 8.79593 9.58737C8.79593 12.0899 11.5713 13.1935 14.0211 14.1675C16.0074 14.9593 18.06 15.776 18.06 17.0093C18.06 19.0538 16.3992 20.7148 14.3522 20.7148C12.7162 20.7148 11.2513 19.6194 10.7961 18.0523C10.454 16.8935 9.36148 16.085 8.13933 16.085Z" fill="white"/>
<path d="M27.2523 14.8076C26.5378 21.1038 21.285 26.0233 14.9563 26.3185C10.1726 26.5447 5.91852 24.1692 3.48525 20.4885C2.76245 19.3959 3.56526 17.9336 4.87569 17.9336H8.13935C8.54489 17.9336 8.9063 18.193 9.01665 18.5682C9.70359 20.9189 11.8968 22.5634 14.3494 22.5634C17.4144 22.5634 19.9056 20.0719 19.9056 17.0093C19.9056 14.5206 17.1413 13.4225 14.6998 12.4513C12.7052 11.6567 10.6443 10.8372 10.6443 9.58736C10.6443 7.54287 12.3051 5.8819 14.3494 5.8819C15.9854 5.8819 17.4503 6.97726 17.9083 8.54442C18.2476 9.70324 19.3346 10.5117 20.5595 10.5117H25.6191C26.455 10.5117 27.1751 11.1324 27.2606 11.9629C27.3599 12.8872 27.3627 13.8391 27.2523 14.8076Z" fill="white"/>
</svg>
