<svg width="120" height="120" viewBox="0 0 120 120" fill="none" xmlns="http://www.w3.org/2000/svg">
<path d="M107.796 45.1934H72.6936C61.4487 45.1934 52.3026 54.38 52.3026 65.6685C52.3026 76.9597 61.4514 86.1436 72.6936 86.1436H107.796" fill="url(#paint0_linear_864_39683)"/>
<path d="M61.5705 115L88.6411 99.3055H72.6935C63.775 99.3055 55.3698 95.7978 49.0289 89.4307C42.6853 83.0637 39.1947 74.6239 39.1947 65.6685C39.1947 56.7132 42.688 48.2733 49.0289 41.9063C55.3698 35.5392 63.775 32.0315 72.6935 32.0315H107.796C107.759 32.0049 107.722 31.9783 107.682 31.9544L61.5705 5.22123C61.0624 4.92626 60.4378 4.92626 59.9297 5.22123L13.8204 31.9517C13.3123 32.2467 13 32.7888 13 33.3788V86.8425C13 87.4297 13.3123 87.9745 13.8204 88.2695L59.9297 115" fill="url(#paint1_linear_864_39683)"/>
<defs>
<linearGradient id="paint0_linear_864_39683" x1="66.675" y1="43.1032" x2="107.308" y2="91.4381" gradientUnits="userSpaceOnUse">
<stop stopColor="#FDF996"/>
<stop offset="0.0001" stopColor="#FFF9BE"/>
<stop offset="1" stopColor="#FFB906"/>
</linearGradient>
<linearGradient id="paint1_linear_864_39683" x1="40" y1="10.5" x2="78.2998" y2="106.881" gradientUnits="userSpaceOnUse">
<stop stopColor="#F2BF3C"/>
<stop offset="0.5201" stopColor="#FF9C06"/>
<stop offset="1" stopColor="#BC4F00"/>
</linearGradient>
</defs>
</svg>
